<svg width="911" height="502" viewBox="0 0 911 502" fill="none" xmlns="http://www.w3.org/2000/svg">
<path d="M62.4 9.99999C62.4 9.99999 109 9.99999 109 50.8C109 91.6 62.4 91.6 62.4 91.6H39.2V150H15.8V68.4H38L15.8 33.4V9.99999H62.4ZM65.4 68.2C71.6 67.4 85.8 64.4 85.8 50.8C85.8 33.4 62.4 33.4 62.4 33.4H43.6L65.4 68.2ZM233.202 150H205.802L169.402 91.6H156.002V150H132.602V68.4H154.802L132.602 33.4V9.99999H179.202C179.202 9.99999 226.002 9.99999 226.002 50.8C226.002 75.6 208.802 85.4 195.202 89.2L233.202 150ZM160.402 33.4L182.202 68.2C188.402 67.6 202.602 64.6 202.602 50.8C202.602 33.4 179.202 33.4 179.202 33.4H160.402ZM301.063 31.4H285.463V128.6H301.863V150H245.662V128.6H262.063V31.4H246.463V9.99999H301.063V31.4ZM476.384 9.79999V150H452.984V64L412.784 150H390.784L347.984 62.2V150H324.584V9.79999H348.384L401.584 118.8L452.584 9.79999H476.384ZM601.388 33.4H531.388V68.4H589.588V91.6H531.388V126.6H601.388V150H507.988V9.99999H601.388V33.4ZM54.6 352C30.4 351.4 11.2 337.4 10.8 311.2H34.2C34.6 322.8 44.2 328.6 54.6 328.6C65.4 328.6 75 321.6 75 310.6C75 298.8 64 291.6 54.6 291.2C53.4 291.2 43.8 291.2 33.6 286.6C19 279.8 10.8 267.4 10.8 250.8C10.8 224.2 32 208 54.6 208C78.8 208 97.4 224.4 97.8 248.2H74.6C74.2 236.6 65.2 231.4 54.6 231.4C43.6 231.4 34.2 237.8 34.2 250.8C34.2 262.4 44.2 268.6 54.6 268.6C55.6 268.6 65.4 268.6 75.4 273.2C90.2 280 98.2 294 98.2 310.6C98.2 337.4 77.2 352 54.6 352ZM217.794 233.4H147.794V268.4H205.994V291.6H147.794V326.6H217.794V350H124.394V210H217.794V233.4ZM342.772 350H315.372L278.972 291.6H265.572V350H242.172V268.4H264.372L242.172 233.4V210H288.772C288.772 210 335.572 210 335.572 250.8C335.572 275.6 318.372 285.4 304.772 289.2L342.772 350ZM269.972 233.4L291.772 268.2C297.972 267.6 312.172 264.6 312.172 250.8C312.172 233.4 288.772 233.4 288.772 233.4H269.972ZM348.633 210H460.433L404.633 355.8L348.633 210ZM383.033 233.2L404.633 292.8L426.033 233.2H383.033ZM521.766 231.4H506.166V328.6H522.566V350H466.366V328.6H482.766V231.4H467.166V210H521.766V231.4ZM610.888 328.6C623.688 328.6 635.488 323.4 643.888 315L660.288 331.6C647.688 344.2 630.288 352 610.888 352C572.288 352 540.688 324 540.688 280C540.688 237.8 569.888 208 610.888 208C630.288 208 647.688 215.8 660.288 228.6L643.888 245C635.488 236.6 623.688 231.4 610.888 231.4C582.088 231.4 564.488 251.8 564.488 280C564.488 310 585.088 328.6 610.888 328.6ZM777.755 233.4H707.755V268.4H765.955V291.6H707.755V326.6H777.755V350H684.355V210H777.755V233.4ZM840.733 352C816.533 351.4 797.333 337.4 796.933 311.2H820.333C820.733 322.8 830.333 328.6 840.733 328.6C851.533 328.6 861.133 321.6 861.133 310.6C861.133 298.8 850.133 291.6 840.733 291.2C839.533 291.2 829.933 291.2 819.733 286.6C805.133 279.8 796.933 267.4 796.933 250.8C796.933 224.2 818.133 208 840.733 208C864.933 208 883.533 224.4 883.933 248.2H860.733C860.333 236.6 851.333 231.4 840.733 231.4C829.733 231.4 820.333 237.8 820.333 250.8C820.333 262.4 830.333 268.6 840.733 268.6C841.733 268.6 851.533 268.6 861.533 273.2C876.333 280 884.333 294 884.333 310.6C884.333 337.4 863.333 352 840.733 352Z" fill="#1b1b1b"/>
<path d="M50.64 442.944C62.608 442.944 68.816 449.472 69.712 458.176L69.776 458.816H60.944L60.816 458.176C59.728 452.736 56.4 449.536 50.512 449.536C43.408 449.536 38.608 455.616 38.608 465.664C38.608 476.672 43.664 482.304 50.384 482.304C56.144 482.304 59.472 478.848 60.624 473.344L60.752 472.704H69.52L69.456 473.344C68.496 482.752 61.328 488.896 50 488.896C37.712 488.896 29.264 480.256 29.264 466.176C29.264 451.712 38.416 442.944 50.64 442.944ZM97.0255 442.944C110.594 442.944 118.85 452.032 118.85 465.92C118.85 479.744 110.594 488.896 97.0255 488.896C83.3935 488.896 75.2015 479.744 75.2015 465.92C75.2015 452.032 83.3935 442.944 97.0255 442.944ZM97.0255 482.304C104.833 482.304 109.569 476.224 109.569 465.92C109.569 455.552 104.833 449.536 97.0255 449.536C89.1535 449.536 84.4175 455.552 84.4175 465.92C84.4175 476.224 89.1535 482.304 97.0255 482.304ZM165.355 488H153.259L135.083 454.464C135.339 459.264 135.403 464.32 135.403 468.032V488H126.571V443.84H138.283L156.843 478.016C156.587 473.28 156.523 467.904 156.523 464.128V443.84H165.291L165.355 488ZM209.756 450.752H194.78V488H185.948V450.752H170.972V443.84H209.756V450.752ZM234.757 474.688H219.909L215.493 488H206.085L222.021 443.84H233.093L248.709 488H239.109L234.757 474.688ZM227.397 451.392L222.149 467.712H232.517L227.397 451.392ZM272.015 442.944C283.983 442.944 290.191 449.472 291.087 458.176L291.151 458.816H282.319L282.191 458.176C281.103 452.736 277.775 449.536 271.887 449.536C264.783 449.536 259.983 455.616 259.983 465.664C259.983 476.672 265.039 482.304 271.759 482.304C277.519 482.304 280.847 478.848 281.999 473.344L282.127 472.704H290.895L290.831 473.344C289.871 482.752 282.703 488.896 271.375 488.896C259.087 488.896 250.639 480.256 250.639 466.176C250.639 451.712 259.791 442.944 272.015 442.944ZM333.194 450.752H318.218V488H309.385V450.752H294.41V443.84H333.194V450.752ZM369.89 442.944C381.858 442.944 388.066 449.472 388.962 458.176L389.026 458.816H380.194L380.066 458.176C378.978 452.736 375.65 449.536 369.762 449.536C362.658 449.536 357.858 455.616 357.858 465.664C357.858 476.672 362.914 482.304 369.634 482.304C375.394 482.304 378.722 478.848 379.874 473.344L380.002 472.704H388.77L388.706 473.344C387.746 482.752 380.578 488.896 369.25 488.896C356.962 488.896 348.514 480.256 348.514 466.176C348.514 451.712 357.666 442.944 369.89 442.944ZM428.756 481.024V488H396.884V443.84H428.116V450.752H405.716V462.4H426.516V469.376H405.716V481.024H428.756ZM475.105 488H463.009L444.833 454.464C445.089 459.264 445.153 464.32 445.153 468.032V488H436.321V443.84H448.033L466.593 478.016C466.337 473.28 466.273 467.904 466.273 464.128V443.84H475.041L475.105 488ZM519.506 450.752H504.53V488H495.698V450.752H480.722V443.84H519.506V450.752ZM556.693 481.024V488H524.821V443.84H556.053V450.752H533.653V462.4H554.453V469.376H533.653V481.024H556.693ZM596.259 476.864C596.835 482.24 597.667 485.504 599.459 488H589.795C588.707 484.992 588.067 482.304 587.619 478.144C587.043 473.408 585.251 470.528 581.667 470.272C580.451 470.208 579.363 470.208 578.211 470.208H573.091V488H564.259V443.84H580.387C582.947 443.84 584.611 443.904 586.787 444.16C593.187 444.928 598.371 448.256 598.371 455.872C598.371 461.568 594.979 465.152 589.731 466.624C594.083 468.288 595.747 471.936 596.259 476.864ZM573.091 463.616H579.171C580.707 463.616 581.795 463.616 582.755 463.552C586.275 463.232 589.091 461.504 589.091 457.216C589.091 452.928 586.723 451.392 583.267 450.944C582.243 450.816 581.155 450.752 579.555 450.752H573.091V463.616Z" fill="#1b1b1b"/>
</svg>
