<?xml version="1.0" standalone="no"?>
<!DOCTYPE svg PUBLIC "-//W3C//DTD SVG 20010904//EN"
 "http://www.w3.org/TR/2001/REC-SVG-20010904/DTD/svg10.dtd">
<svg version="1.0" xmlns="http://www.w3.org/2000/svg"
 width="1077.000000pt" height="1069.000000pt" color="#004aad" background="#ffffff" viewBox="0 0 1077.000000 1069.000000"
 preserveAspectRatio="xMidYMid meet">

<g transform="translate(0.000000,1069.000000) scale(0.100000,-0.100000)"
fill="currentColor" backgroundColor="#ffffff" stroke="none">
    <path d="M0 5345 l0 -5345 5385 0 5385 0 0 5345 0 5345 -5385 0 -5385 0 0
    -5345z m6382 3587 c165 -73 229 -300 137 -489 -45 -93 -150 -163 -244 -163
    l-35 0 0 88 0 88 50 21 c41 18 54 29 70 65 25 54 25 101 1 155 -45 99 -167
    109 -236 19 -20 -27 -29 -53 -36 -111 -14 -114 -43 -180 -104 -241 -59 -60
    -122 -84 -215 -84 -128 0 -231 60 -289 169 -113 212 3 477 222 507 l47 7 0
    -97 c0 -94 0 -96 -24 -96 -32 0 -75 -36 -92 -76 -55 -132 61 -268 186 -218 55
    22 79 65 90 161 5 43 16 99 25 125 21 60 89 136 147 165 87 44 209 46 300 5z
    m-744 -959 l2 -273 135 0 135 0 0 225 0 225 90 0 90 0 0 -225 0 -225 135 0
    135 0 2 273 3 272 90 0 90 0 3 -367 2 -368 -550 0 -550 0 0 370 0 371 93 -3
    92 -3 3 -272z m22 -594 c33 -33 60 -63 60 -66 0 -3 -16 -30 -35 -58 -123 -186
    -61 -434 132 -525 69 -32 168 -45 246 -32 139 23 225 85 281 202 26 57 30 76
    30 150 0 91 -18 145 -70 222 -30 43 -29 44 47 116 l57 53 35 -43 c115 -141
    151 -343 93 -523 -36 -111 -84 -181 -176 -256 -212 -172 -572 -154 -767 39
    -105 103 -156 232 -156 392 0 103 14 164 58 251 25 49 90 139 101 139 2 0 31
    -27 64 -61z m-1218 -512 c0 -122 0 -233 -1 -246 -1 -14 0 -35 4 -48 5 -23 7
    -23 140 -23 l135 0 0 225 0 225 90 0 90 0 0 -225 0 -225 135 0 135 0 0 270 0
    270 95 0 95 0 0 -365 0 -365 -550 0 -550 0 0 364 0 365 28 3 c15 2 55 1 90 0
    l62 -4 2 -221z m2108 -612 l0 -225 -85 0 -85 0 0 65 0 65 -380 0 -380 0 0 -59
    0 -59 63 -25 c34 -13 249 -96 477 -182 228 -87 419 -161 423 -165 7 -6 -1105
    -440 -1127 -440 -3 0 -6 279 -6 620 l0 620 85 0 85 0 0 -60 0 -60 380 0 380 0
    0 65 0 65 85 0 85 0 0 -225z m-1190 -120 l0 -95 -324 -2 -325 -3 322 -151 322
    -150 3 -88 3 -87 -338 -167 -338 -167 338 -3 337 -2 0 -90 0 -90 -550 0 -550
    0 0 95 0 95 93 44 c50 24 241 117 422 206 l330 163 -75 36 c-41 20 -230 108
    -420 197 l-345 161 -3 96 -3 97 551 0 550 0 0 -95z m1190 -944 l0 -110 -230
    -143 -230 -143 0 -52 0 -53 230 0 230 0 0 -90 0 -90 -320 0 -319 0 -3 84 -3
    85 -133 -85 -132 -84 -95 0 -95 0 0 208 c0 227 9 286 58 375 53 98 142 147
    267 147 124 0 218 -59 271 -169 15 -34 31 -61 34 -61 3 0 109 65 235 145 127
    79 231 144 233 145 1 0 2 -49 2 -109z m-1192 -533 l-3 -322 -213 -132 c-117
    -73 -220 -138 -228 -145 -9 -7 -14 -30 -14 -60 l0 -49 230 0 231 0 -3 -92 -3
    -93 -317 -3 -318 -2 0 86 c0 69 -3 85 -14 81 -8 -3 -71 -42 -142 -86 l-128
    -81 -88 0 -88 0 0 213 c0 277 18 352 107 441 60 61 113 81 213 81 73 0 93 -4
    142 -28 64 -31 107 -79 141 -156 l22 -50 211 132 211 132 -58 3 -59 3 0 64 0
    65 -380 0 -380 0 0 -60 0 -60 -85 0 -85 0 0 215 0 215 85 0 85 0 0 -60 0 -60
    380 0 380 0 0 65 0 65 85 0 85 0 -2 -322z m280 -495 l2 -273 135 0 135 0 0
    225 0 225 90 0 90 0 0 -225 0 -225 135 0 135 0 2 273 3 272 90 0 90 0 3 -367
    2 -368 -550 0 -550 0 0 370 0 371 93 -3 92 -3 3 -272z m-973 -474 c22 -6 61
    -24 86 -41 101 -68 149 -191 149 -385 l0 -113 230 0 231 0 -3 -92 -3 -93 -315
    0 -315 0 -3 83 c-2 45 -6 82 -10 82 -4 0 -68 -38 -142 -85 l-135 -85 -87 0
    -88 0 0 213 c0 277 18 352 107 441 72 73 192 103 298 75z m1085 -174 l0 -95
    -26 0 c-41 0 -91 -57 -99 -114 -14 -90 29 -165 105 -186 100 -27 180 47 180
    165 0 48 28 142 54 182 32 50 71 86 125 114 60 31 188 38 259 15 190 -64 271
    -299 171 -503 -17 -35 -46 -76 -67 -93 -44 -36 -129 -70 -177 -70 l-35 0 0 89
    0 89 42 14 c128 40 128 253 0 298 -37 13 -47 13 -84 0 -65 -23 -98 -72 -109
    -164 -14 -114 -43 -181 -103 -241 -61 -62 -121 -85 -217 -85 -213 0 -363 184
    -328 401 21 134 99 225 224 265 85 27 85 26 85 -81z m-1640 -1105 c27 -27 27
    -70 0 -70 -13 0 -24 10 -30 25 -8 20 -16 25 -44 25 -47 0 -76 -37 -76 -96 0
    -72 40 -94 86 -48 17 16 35 24 50 22 l24 -3 -20 -32 c-25 -41 -84 -60 -137
    -42 -75 24 -82 133 -13 201 34 34 43 38 89 38 38 0 56 -5 71 -20z m241 -9 c34
    -34 39 -91 13 -146 -29 -63 -105 -90 -167 -60 -43 20 -62 61 -54 117 10 76 58
    118 135 118 35 0 49 -6 73 -29z m164 -59 c31 -87 38 -88 49 -7 15 102 0 93
    152 94 74 1 134 -1 134 -3 0 -24 -16 -36 -50 -36 l-38 0 -18 -100 c-16 -93
    -19 -100 -41 -100 -28 0 -28 10 -8 117 8 43 15 79 15 81 0 1 -19 2 -43 2 l-44
    0 -17 -101 -18 -100 -35 3 c-34 3 -36 6 -60 73 -14 39 -29 74 -33 78 -4 5 -13
    -28 -20 -72 -12 -75 -14 -81 -36 -81 -29 0 -29 4 -8 124 22 124 19 118 56 114
    31 -3 34 -7 63 -86z m465 79 c0 -11 28 -178 35 -208 5 -20 1 -23 -25 -23 -23
    0 -30 5 -30 19 0 39 -11 51 -49 51 -33 0 -39 -4 -54 -35 -13 -26 -23 -35 -42
    -35 -14 0 -25 2 -25 5 0 3 27 57 61 120 59 112 62 115 95 115 19 0 34 -4 34
    -9z m254 -12 c17 -14 26 -29 24 -43 -4 -30 -40 -33 -53 -4 -12 27 -48 35 -81
    18 -28 -15 -48 -87 -35 -124 13 -32 46 -42 76 -22 14 9 25 21 25 26 0 6 11 10
    25 10 30 0 31 -9 5 -43 -43 -54 -138 -56 -175 -4 -35 49 -7 154 49 188 42 26
    106 25 140 -2z m254 4 c-2 -13 -15 -19 -45 -21 l-41 -3 -18 -100 c-16 -92 -19
    -99 -41 -99 -27 0 -27 1 -8 110 8 47 15 86 15 88 0 1 -18 2 -40 2 -27 0 -40 4
    -40 13 0 24 12 27 117 27 94 0 104 -2 101 -17z m336 -4 c35 -27 36 -69 2 -69
    -17 0 -26 7 -30 26 -6 22 -11 25 -43 22 -47 -4 -74 -39 -75 -98 0 -31 5 -47
    18 -57 26 -19 42 -16 70 12 24 24 64 34 64 16 0 -22 -52 -69 -83 -75 -71 -13
    -127 32 -127 104 0 43 35 106 68 124 40 22 104 20 136 -5z m234 4 c-3 -15 -16
    -19 -66 -21 -44 -2 -62 -7 -62 -17 0 -7 -3 -20 -6 -29 -5 -13 3 -16 50 -16 49
    0 56 -2 56 -20 0 -18 -7 -20 -60 -20 l-60 0 0 -30 c0 -30 1 -30 53 -30 58 0
    68 -4 60 -26 -7 -19 -173 -20 -173 -1 0 16 29 187 36 210 5 14 18 17 90 17 76
    0 85 -2 82 -17z m115 -71 c17 -45 32 -81 33 -79 2 2 9 30 14 63 20 116 -11
    103 241 104 206 0 220 -1 217 -17 -3 -15 -15 -19 -66 -21 -44 -2 -62 -7 -62
    -17 0 -7 -3 -20 -6 -29 -5 -13 3 -16 50 -16 49 0 56 -2 56 -20 0 -18 -7 -20
    -60 -20 l-60 0 0 -30 c0 -30 1 -30 53 -30 58 0 68 -4 60 -26 -4 -10 -26 -14
    -89 -14 -96 0 -91 -8 -69 107 8 43 15 81 15 86 0 4 -18 7 -39 7 -44 0 -41 5
    -62 -122 -12 -71 -15 -78 -36 -78 -16 0 -23 6 -23 18 0 17 15 112 25 158 4 20
    0 22 -40 26 -33 2 -45 0 -45 -10 0 -8 -7 -54 -16 -104 l-17 -89 -35 3 c-34 3
    -37 5 -62 75 -14 40 -28 75 -32 78 -3 3 -11 -30 -18 -75 -12 -74 -14 -80 -36
    -80 -29 0 -29 5 -8 125 21 121 19 117 56 113 30 -3 33 -7 61 -86z m687 68 c16
    -25 11 -68 -9 -87 -17 -16 -19 -26 -12 -76 l8 -57 -28 0 c-26 0 -28 3 -31 43
    -3 39 -5 42 -35 45 -31 3 -32 2 -38 -42 -6 -40 -10 -46 -31 -46 -15 0 -24 6
    -24 16 0 18 29 191 36 213 6 19 151 11 164 -9z"/>
    <path d="M5631 5670 c0 -88 4 -162 7 -164 4 -2 107 33 229 77 122 45 217 85
    210 88 -13 8 -436 159 -443 159 -3 0 -4 -72 -3 -160z"/>
    <path d="M5737 5050 c-70 -21 -96 -79 -97 -212 0 -54 3 -98 6 -98 3 0 62 35
    130 78 l125 77 -4 38 c-11 84 -85 138 -160 117z"/>
    <path d="M4518 4295 c-42 -23 -68 -91 -73 -187 -5 -129 -9 -128 135 -37 139
    88 146 98 110 168 -33 65 -109 90 -172 56z"/>
    <path d="M4506 3485 c-15 -14 -34 -41 -42 -61 -16 -38 -27 -175 -17 -212 5
    -21 7 -20 62 15 31 20 89 57 129 81 81 50 84 60 51 129 -36 74 -128 99 -183
    48z"/>
    <path d="M4222 2367 c-65 -69 -12 -182 62 -133 43 28 58 126 23 148 -23 15
    -64 8 -85 -15z"/>
    <path d="M4917 2343 c-21 -40 -21 -43 2 -43 25 0 29 8 21 45 l-6 30 -17 -32z"/>
    <path d="M6740 2378 c0 -7 -3 -23 -6 -35 -6 -20 -3 -23 24 -23 48 0 84 49 46
    64 -27 10 -64 7 -64 -6z"/>
</g>
</svg>
