<svg width="1436" height="1426" viewBox="0 0 1436 1426" fill="none" xmlns="http://www.w3.org/2000/svg">
<g clip-path="url(#clip0_1137_1939)">
<rect width="1436" height="1425.33" fill="white"/>
<path d="M0 712.667V1425.33H718H1436V712.667V-3.36468e-05H718H0V712.667ZM850.933 234.4C872.933 244.133 881.467 274.4 869.2 299.6C863.2 312 849.2 321.333 836.667 321.333H832V309.6V297.867L838.667 295.067C844.133 292.667 845.867 291.2 848 286.4C851.333 279.2 851.333 272.933 848.133 265.733C842.133 252.533 825.867 251.2 816.667 263.2C814 266.8 812.8 270.267 811.867 278C810 293.2 806.133 302 798 310.133C790.133 318.133 781.733 321.333 769.333 321.333C752.267 321.333 738.533 313.333 730.8 298.8C715.733 270.533 731.2 235.2 760.4 231.2L766.667 230.267V243.2C766.667 255.733 766.667 256 763.467 256C759.2 256 753.467 260.8 751.2 266.133C743.867 283.733 759.333 301.867 776 295.2C783.333 292.267 786.533 286.533 788 273.733C788.667 268 790.133 260.533 791.333 257.067C794.133 249.067 803.2 238.933 810.933 235.067C822.533 229.2 838.8 228.933 850.933 234.4ZM751.733 362.267L752 398.667H770H788V368.667V338.667H800H812V368.667V398.667H830H848L848.267 362.267L848.667 326H860.667H872.667L873.067 374.933L873.333 424H800H726.667V374.667V325.2L739.067 325.6L751.333 326L751.733 362.267ZM754.667 441.467C759.067 445.867 762.667 449.867 762.667 450.267C762.667 450.667 760.533 454.267 758 458C741.6 482.8 749.867 515.867 775.6 528C784.8 532.267 798 534 808.4 532.267C826.933 529.2 838.4 520.933 845.867 505.333C849.333 497.733 849.867 495.2 849.867 485.333C849.867 473.2 847.467 466 840.533 455.733C836.533 450 836.667 449.867 846.8 440.267L854.4 433.2L859.067 438.933C874.4 457.733 879.2 484.667 871.467 508.667C866.667 523.467 860.267 532.8 848 542.8C819.733 565.733 771.733 563.333 745.733 537.6C731.733 523.867 724.933 506.667 724.933 485.333C724.933 471.6 726.8 463.467 732.667 451.867C736 445.333 744.667 433.333 746.133 433.333C746.4 433.333 750.267 436.933 754.667 441.467ZM592.267 509.733C592.267 526 592.267 540.8 592.133 542.533C592 544.4 592.133 547.2 592.667 548.933C593.333 552 593.6 552 611.333 552H629.333V522V492H641.333H653.333V522V552H671.333H689.333V516V480H702H714.667V528.667V577.333H641.333H568V528.8V480.133L571.733 479.733C573.733 479.467 579.067 479.6 583.733 479.733L592 480.267L592.267 509.733ZM873.333 591.333V621.333H862H850.667V612.667V604H800H749.333V611.867V619.733L757.733 623.067C762.267 624.8 790.933 635.867 821.333 647.333C851.733 658.933 877.2 668.8 877.733 669.333C878.667 670.133 730.4 728 727.467 728C727.067 728 726.667 690.8 726.667 645.333V562.667H738H749.333V570.667V578.667H800H850.667V570V561.333H862H873.333V591.333ZM714.667 607.333V620L671.467 620.267L628.133 620.667L671.067 640.8L714 660.8L714.4 672.533L714.8 684.133L669.733 706.4L624.667 728.667L669.733 729.067L714.667 729.333V741.333V753.333H641.333H568V740.667V728L580.4 722.133C587.067 718.933 612.533 706.533 636.667 694.667L680.667 672.933L670.667 668.133C665.2 665.467 640 653.733 614.667 641.867L568.667 620.4L568.267 607.6L567.867 594.667H641.333H714.667V607.333ZM873.333 733.2V747.867L842.667 766.933L812 786V792.933V800H842.667H873.333V812V824H830.667H788.133L787.733 812.8L787.333 801.467L769.6 812.8L752 824H739.333H726.667V796.267C726.667 766 727.867 758.133 734.4 746.267C741.467 733.2 753.333 726.667 770 726.667C786.533 726.667 799.067 734.533 806.133 749.2C808.133 753.733 810.267 757.333 810.667 757.333C811.067 757.333 825.2 748.667 842 738C858.933 727.467 872.8 718.8 873.067 718.667C873.2 718.667 873.333 725.2 873.333 733.2ZM714.4 804.267L714 847.2L685.6 864.8C670 874.533 656.267 883.2 655.2 884.133C654 885.067 653.333 888.133 653.333 892.133V898.667H684H714.8L714.4 910.933L714 923.333L671.733 923.733L629.333 924V912.533C629.333 903.333 628.933 901.2 627.467 901.733C626.4 902.133 618 907.333 608.533 913.2L591.467 924H579.733H568V895.6C568 858.667 570.4 848.667 582.267 836.8C590.267 828.667 597.333 826 610.667 826C620.4 826 623.067 826.533 629.6 829.733C638.133 833.867 643.867 840.267 648.4 850.533L651.333 857.2L679.467 839.6L707.6 822L699.867 821.6L692 821.2V812.667V804H641.333H590.667V812V820H579.333H568V791.333V762.667H579.333H590.667V770.667V778.667H641.333H692V770V761.333H703.333H714.667L714.4 804.267ZM751.733 870.267L752 906.667H770H788V876.667V846.667H800H812V876.667V906.667H830H848L848.267 870.267L848.667 834H860.667H872.667L873.067 882.933L873.333 932H800H726.667V882.667V833.2L739.067 833.6L751.333 834L751.733 870.267ZM622 933.467C624.933 934.267 630.133 936.667 633.467 938.933C646.933 948 653.333 964.4 653.333 990.267V1005.33H684H714.8L714.4 1017.6L714 1030H672H630L629.6 1018.93C629.333 1012.93 628.8 1008 628.267 1008C627.733 1008 619.2 1013.07 609.333 1019.33L591.333 1030.67H579.733H568V1002.27C568 965.333 570.4 955.333 582.267 943.467C591.867 933.733 607.867 929.733 622 933.467ZM766.667 956.667V969.333H763.2C757.733 969.333 751.067 976.933 750 984.533C748.133 996.533 753.867 1006.53 764 1009.33C777.333 1012.93 788 1003.07 788 987.333C788 980.933 791.733 968.4 795.2 963.067C799.467 956.4 804.667 951.6 811.867 947.867C819.867 943.733 836.933 942.8 846.4 945.867C871.733 954.4 882.533 985.733 869.2 1012.93C866.933 1017.6 863.067 1023.07 860.267 1025.33C854.4 1030.13 843.067 1034.67 836.667 1034.67H832V1022.8V1010.93L837.6 1009.07C854.667 1003.73 854.667 975.333 837.6 969.333C832.667 967.6 831.333 967.6 826.4 969.333C817.733 972.4 813.333 978.933 811.867 991.2C810 1006.4 806.133 1015.33 798.133 1023.33C790 1031.6 782 1034.67 769.2 1034.67C740.8 1034.67 720.8 1010.13 725.467 981.2C728.267 963.333 738.667 951.2 755.333 945.867C766.667 942.267 766.667 942.4 766.667 956.667ZM548 1104C551.6 1107.6 551.6 1113.33 548 1113.33C546.267 1113.33 544.8 1112 544 1110C542.933 1107.33 541.867 1106.67 538.133 1106.67C531.867 1106.67 528 1111.6 528 1119.47C528 1129.07 533.333 1132 539.467 1125.87C541.733 1123.73 544.133 1122.67 546.133 1122.93L549.333 1123.33L546.667 1127.6C543.333 1133.07 535.467 1135.6 528.4 1133.2C518.4 1130 517.467 1115.47 526.667 1106.4C531.2 1101.87 532.4 1101.33 538.533 1101.33C543.6 1101.33 546 1102 548 1104ZM580.133 1105.2C584.667 1109.73 585.333 1117.33 581.867 1124.67C578 1133.07 567.867 1136.67 559.6 1132.67C553.867 1130 551.333 1124.53 552.4 1117.07C553.733 1106.93 560.133 1101.33 570.4 1101.33C575.067 1101.33 576.933 1102.13 580.133 1105.2ZM602 1113.07C606.133 1124.67 607.067 1124.8 608.533 1114C610.533 1100.4 608.533 1101.6 628.8 1101.47C638.667 1101.33 646.667 1101.6 646.667 1101.87C646.667 1105.07 644.533 1106.67 640 1106.67H634.933L632.533 1120C630.4 1132.4 630 1133.33 627.067 1133.33C623.333 1133.33 623.333 1132 626 1117.73C627.067 1112 628 1107.2 628 1106.93C628 1106.8 625.467 1106.67 622.267 1106.67H616.4L614.133 1120.13L611.733 1133.47L607.067 1133.07C602.533 1132.67 602.267 1132.27 599.067 1123.33C597.2 1118.13 595.2 1113.47 594.667 1112.93C594.133 1112.27 592.933 1116.67 592 1122.53C590.4 1132.53 590.133 1133.33 587.2 1133.33C583.333 1133.33 583.333 1132.8 586.133 1116.8C589.067 1100.27 588.667 1101.07 593.6 1101.6C597.733 1102 598.133 1102.53 602 1113.07ZM664 1102.53C664 1104 667.733 1126.27 668.667 1130.27C669.333 1132.93 668.8 1133.33 665.333 1133.33C662.267 1133.33 661.333 1132.67 661.333 1130.8C661.333 1125.6 659.867 1124 654.8 1124C650.4 1124 649.6 1124.53 647.6 1128.67C645.867 1132.13 644.533 1133.33 642 1133.33C640.133 1133.33 638.667 1133.07 638.667 1132.67C638.667 1132.27 642.267 1125.07 646.8 1116.67C654.667 1101.73 655.067 1101.33 659.467 1101.33C662 1101.33 664 1101.87 664 1102.53ZM697.867 1104.13C700.133 1106 701.333 1108 701.067 1109.87C700.533 1113.87 695.733 1114.27 694 1110.4C692.4 1106.8 687.6 1105.73 683.2 1108C679.467 1110 676.8 1119.6 678.533 1124.53C680.267 1128.8 684.667 1130.13 688.667 1127.47C690.533 1126.27 692 1124.67 692 1124C692 1123.2 693.467 1122.67 695.333 1122.67C699.333 1122.67 699.467 1123.87 696 1128.4C690.267 1135.6 677.6 1135.87 672.667 1128.93C668 1122.4 671.733 1108.4 679.2 1103.87C684.8 1100.4 693.333 1100.53 697.867 1104.13ZM731.733 1103.6C731.467 1105.33 729.733 1106.13 725.733 1106.4L720.267 1106.8L717.867 1120.13C715.733 1132.4 715.333 1133.33 712.4 1133.33C708.8 1133.33 708.8 1133.2 711.333 1118.67C712.4 1112.4 713.333 1107.2 713.333 1106.93C713.333 1106.8 710.933 1106.67 708 1106.67C704.4 1106.67 702.667 1106.13 702.667 1104.93C702.667 1101.73 704.267 1101.33 718.267 1101.33C730.8 1101.33 732.133 1101.6 731.733 1103.6ZM776.533 1104.13C781.2 1107.73 781.333 1113.33 776.8 1113.33C774.533 1113.33 773.333 1112.4 772.8 1109.87C772 1106.93 771.333 1106.53 767.067 1106.93C760.8 1107.47 757.2 1112.13 757.067 1120C757.067 1124.13 757.733 1126.27 759.467 1127.6C762.933 1130.13 765.067 1129.73 768.8 1126C772 1122.8 777.333 1121.47 777.333 1123.87C777.333 1126.8 770.4 1133.07 766.267 1133.87C756.8 1135.6 749.333 1129.6 749.333 1120C749.333 1114.27 754 1105.87 758.4 1103.47C763.733 1100.53 772.267 1100.8 776.533 1104.13ZM807.733 1103.6C807.333 1105.6 805.6 1106.13 798.933 1106.4C793.067 1106.67 790.667 1107.33 790.667 1108.67C790.667 1109.6 790.267 1111.33 789.867 1112.53C789.2 1114.27 790.267 1114.67 796.533 1114.67C803.067 1114.67 804 1114.93 804 1117.33C804 1119.73 803.067 1120 796 1120H788V1124C788 1128 788.133 1128 795.067 1128C802.8 1128 804.133 1128.53 803.067 1131.47C802.133 1134 780 1134.13 780 1131.6C780 1129.47 783.867 1106.67 784.8 1103.6C785.467 1101.73 787.2 1101.33 796.8 1101.33C806.933 1101.33 808.133 1101.6 807.733 1103.6ZM823.067 1113.07C825.333 1119.07 827.333 1123.87 827.467 1123.6C827.733 1123.33 828.667 1119.6 829.333 1115.2C832 1099.73 827.867 1101.47 861.467 1101.33C888.933 1101.33 890.8 1101.47 890.4 1103.6C890 1105.6 888.4 1106.13 881.6 1106.4C875.733 1106.67 873.333 1107.33 873.333 1108.67C873.333 1109.6 872.933 1111.33 872.533 1112.53C871.867 1114.27 872.933 1114.67 879.2 1114.67C885.733 1114.67 886.667 1114.93 886.667 1117.33C886.667 1119.73 885.733 1120 878.667 1120H870.667V1124C870.667 1128 870.8 1128 877.733 1128C885.467 1128 886.8 1128.53 885.733 1131.47C885.2 1132.8 882.267 1133.33 873.867 1133.33C861.067 1133.33 861.733 1134.4 864.667 1119.07C865.733 1113.33 866.667 1108.27 866.667 1107.6C866.667 1107.07 864.267 1106.67 861.467 1106.67C855.6 1106.67 856 1106 853.2 1122.93C851.6 1132.4 851.2 1133.33 848.4 1133.33C846.267 1133.33 845.333 1132.53 845.333 1130.93C845.333 1128.67 847.333 1116 848.667 1109.87C849.2 1107.2 848.667 1106.93 843.333 1106.4C838.933 1106.13 837.333 1106.4 837.333 1107.73C837.333 1108.8 836.4 1114.93 835.2 1121.6L832.933 1133.47L828.267 1133.07C823.733 1132.67 823.333 1132.4 820 1123.07C818.133 1117.73 816.267 1113.07 815.733 1112.67C815.333 1112.27 814.267 1116.67 813.333 1122.67C811.733 1132.53 811.467 1133.33 808.533 1133.33C804.667 1133.33 804.667 1132.67 807.467 1116.67C810.267 1100.53 810 1101.07 814.933 1101.6C818.933 1102 819.333 1102.53 823.067 1113.07ZM914.667 1104C916.8 1107.33 916.133 1113.07 913.467 1115.6C911.2 1117.73 910.933 1119.07 911.867 1125.73L912.933 1133.33H909.2C905.733 1133.33 905.467 1132.93 905.067 1127.6C904.667 1122.4 904.4 1122 900.4 1121.6C896.267 1121.2 896.133 1121.33 895.333 1127.2C894.533 1132.53 894 1133.33 891.2 1133.33C889.2 1133.33 888 1132.53 888 1131.2C888 1128.8 891.867 1105.73 892.8 1102.8C893.6 1100.27 912.933 1101.33 914.667 1104Z" fill="#004AAD"/>
<path d="M750.8 669.333C750.8 681.067 751.333 690.933 751.733 691.2C752.267 691.467 766 686.8 782.267 680.933C798.533 674.933 811.2 669.6 810.267 669.2C808.533 668.133 752.133 648 751.2 648C750.8 648 750.667 657.6 750.8 669.333Z" fill="#004AAD"/>
<path d="M764.933 752C755.6 754.8 752.133 762.533 752 780.267C752 787.467 752.4 793.333 752.8 793.333C753.2 793.333 761.067 788.667 770.133 782.933L786.8 772.667L786.267 767.6C784.8 756.4 774.933 749.2 764.933 752Z" fill="#004AAD"/>
<path d="M602.4 852.667C596.8 855.733 593.333 864.8 592.667 877.6C592 894.8 591.467 894.667 610.667 882.533C629.2 870.8 630.133 869.467 625.333 860.133C620.933 851.467 610.8 848.133 602.4 852.667Z" fill="#004AAD"/>
<path d="M600.8 960.667C598.8 962.533 596.267 966.133 595.2 968.8C593.067 973.867 591.6 992.133 592.933 997.067C593.6 999.867 593.867 999.733 601.2 995.067C605.333 992.4 613.067 987.467 618.4 984.267C629.2 977.6 629.6 976.267 625.2 967.067C620.4 957.2 608.133 953.867 600.8 960.667Z" fill="#004AAD"/>
<path d="M562.933 1109.73C554.267 1118.93 561.333 1134 571.2 1127.47C576.933 1123.73 578.933 1110.67 574.267 1107.73C571.2 1105.73 565.733 1106.67 562.933 1109.73Z" fill="#004AAD"/>
<path d="M655.6 1112.93C652.8 1118.27 652.8 1118.67 655.867 1118.67C659.2 1118.67 659.733 1117.6 658.667 1112.67L657.867 1108.67L655.6 1112.93Z" fill="#004AAD"/>
<path d="M898.667 1108.27C898.667 1109.2 898.267 1111.33 897.867 1112.93C897.067 1115.6 897.467 1116 901.067 1116C907.467 1116 912.267 1109.47 907.2 1107.47C903.6 1106.13 898.667 1106.53 898.667 1108.27Z" fill="#004AAD"/>
</g>
<defs>
<clipPath id="clip0_1137_1939">
<rect width="1436" height="1425.33" fill="white"/>
</clipPath>
</defs>
</svg>
