<?xml version="1.0" encoding="UTF-8"?>
<svg version="1.1" viewBox="0 0 1077 1069" width="1280" height="1280" xmlns="http://www.w3.org/2000/svg">
    <path transform="translate(0)" d="m0 0h1077v1069h-1077z" fill="#0049AB"/>
    <path transform="translate(519,571)" d="m0 0h17v64l-17 11-24 15-5 2v11h46v18h-64v-16l-14 8-12 8h-20v-42l2-8 4-9 7-8 7-4 7-2h9l9 2 8 6 6 7 3 8 11-6 30-19h2v-2h-12v-12h-76v12h-17v-43h17v12h76z" fill="#FCFDFB"/>
    <path transform="translate(638,421)" d="m0 0h16l1 1v44h-17v-13h-76l1 12 50 19 44 17 2 2-57 22-55 21h-2v-124h17v12h76z" fill="#FCFDFB"/>
    <path transform="translate(426,446)" d="m0 0h110v18l-2 1h-58l-3 1 40 19 22 10 1 1v17l-19 10-39 19-8 4 66 1v18h-110v-19l38-19 23-11 20-10h3l-1-2-28-13-34-16-20-9-1-1z" fill="#FCFDFB"/>
    <path transform="translate(653,540)" d="m0 0h2v21l-22 14-21 13-3 1v11h46v18h-64l-1-16-18 11-8 5h-19v-42l4-14 7-10 10-6 4-1h14l8 3 6 4 6 8 4 8 19-12 24-15z" fill="#FCFDFB"/>
    <path transform="translate(549,625)" d="m0 0h9l6 1v54h27v-45h18v45h27v-54l13-1 6 1v73h-110v-73z" fill="#FCFDFB"/>
    <path transform="translate(545,245)" d="m0 0h19v54h27v-45h18v45h27v-54h19v73h-110z" fill="#FCFDFB"/>
    <path transform="translate(426,360)" d="m0 0h18l1 54h26l1-45h18v45h26l1-54h19v73h-110z" fill="#FCFDFB"/>
    <path transform="translate(454,699)" d="m0 0h8l10 3 6 4 7 8 4 11 1 5v24h46v18h-64v-16l-11 6-15 10h-20v-42l2-8 4-9 7-8 7-4z" fill="#FCFDFB"/>
    <path transform="translate(570,708)" d="m0 0h5v18l-8 4-3 4-1 3v10l4 7 7 3 9-1 5-5 2-5 2-14 4-10 7-8 10-5 3-1h16l9 4 8 7 5 8 2 7v16l-4 11-5 7-9 6-6 2h-8v-18l9-4 4-8v-8l-4-8-6-3-9 1-6 5-2 5-3 17-5 10-9 8-9 3h-14l-8-3-9-6-6-9-3-8v-16l4-11 9-10 9-4z" fill="#FCFDFB"/>
    <path transform="translate(570,173)" d="m0 0h5v18l-8 4-3 4-1 3v9l4 8 7 3 9-1 5-5 2-5 2-15 6-12 8-7 10-4h16l10 4 5 4 6 9 3 9v16l-4 11-9 10-8 4-4 1h-7v-18l9-4 4-8v-8l-4-8-5-3h-8l-6 4-3 4-4 20-4 8-6 7-9 5-4 1h-14l-12-5-6-5-6-10-2-6-1-8 2-13 5-9 7-7 9-4z" fill="#FCFDFB"/>
    <path transform="translate(559,325)" d="m0 0 7 6 6 6-2 5-5 8-2 8v12l3 10 6 9 8 6 12 4h15l10-3 10-6 6-8 4-13v-9l-3-12-6-9 2-4 10-10 5 5 6 9 4 10 1 5v20l-4 13-6 11-10 10-12 7-11 3-6 1h-14l-14-3-14-7-6-5-9-12-5-13-2-16 2-14 5-12 8-11z" fill="#FCFDFB"/>
    <path transform="translate(563,486)" d="m0 0 5 1 40 14 1 2-44 16h-2z" fill="#0049AB"/>
    <path transform="translate(608,826)" d="m0 0h6l5 12 1 3 2-6 2-9h44l-1 4h-12l-1 6h11v4h-12v5l11 1 1 2-1 2h-17l1-10 2-10h-8l-3 19-5 1 1-11 2-9h-8l-4 20h-7l-6-15-3 14-5 1 1-11z" fill="#FCFDFB"/>
    <path transform="translate(453,718)" d="m0 0h10l5 4 3 6v6l-17 11-9 5-1-1v-15l2-8 4-6z" fill="#0049AB"/>
    <path transform="translate(453,638)" d="m0 0h9l5 3 4 7v6l-17 11-8 5h-2v-16l2-8 4-6z" fill="#0049AB"/>
    <path transform="translate(574,563)" d="m0 0 8 1 6 5 2 5v6l-19 12-7 4-1-3v-13l3-10 4-5z" fill="#0049AB"/>
    <path transform="translate(442,826)" d="m0 0h6l5 12 2 3 3-15h27l-1 4h-8l-2 14-1 6h-5l1-11 2-9h-8l-4 20h-7l-6-16-3 16h-5l1-11z" fill="#FCFDFB"/>
    <path transform="translate(423,826)" d="m0 0h9l5 4 1 2v9l-4 7-7 3-8-1-5-6v-8l3-6z" fill="#FCFDFB"/>
    <path transform="translate(670,826)" d="m0 0h12l5 3v6l-4 4 1 2v9l-5-1-1-7-6-1-1 9h-5l1-11z" fill="#FCFDFB"/>
    <path transform="translate(491,826)" d="m0 0h6l2 5 3 19h-6v-7h-9l-2 5-1 2h-5l2-5z" fill="#E9EFF5"/>
    <path transform="translate(589,826)" d="m0 0h17l-1 4h-12l-1 6h11v4h-12l-1 6h12v4h-17l1-10z" fill="#FCFDFB"/>
    <path transform="translate(512,826)" d="m0 0h9l5 5-1 4-4-1-1-4-7 1-3 1-1 10 2 4h5l3-4h5l-2 5-4 3-7 1-6-3-2-4v-7l4-8z" fill="#FCFDFB"/>
    <path transform="translate(400,826)" d="m0 0h9l4 4v4h-5l-1-3-4-1-5 3-1 2v10l1 1h5l4-4h5l-3 5-4 3-6 1-5-2-3-3-1-8 3-7 4-4z" fill="#FCFDFB"/>
    <path transform="translate(572,826)" d="m0 0h8l5 5v3h-5l-1-4-7 1-3 1-1 11 2 3h5l3-4h5l-2 5-4 3-7 1-6-3-2-4v-7l4-8z" fill="#FCFDFB"/>
    <path transform="translate(424,830)" d="m0 0h6l3 3v7l-3 5-3 2-6-1-2-3 1-9z" fill="#0049AB"/>
    <path transform="translate(528,826)" d="m0 0h21l-1 4h-8l-1 9-2 11h-5l1-10 2-10h-8z" fill="#FCFDFB"/>
    <path transform="translate(674,830)" d="m0 0h6l2 1-1 5-1 1h-7z" fill="#0049AB"/>
</svg>
