<svg width="1080" height="1080" viewBox="0 0 1080 1080" fill="none" xmlns="http://www.w3.org/2000/svg">
<rect width="1080" height="1080" fill="#004AAD"/>
<path d="M146.4 299C146.4 299 193 299 193 339.8C193 380.6 146.4 380.6 146.4 380.6H123.2V439H99.8V357.4H122L99.8 322.4V299H146.4ZM149.4 357.2C155.6 356.4 169.8 353.4 169.8 339.8C169.8 322.4 146.4 322.4 146.4 322.4H127.6L149.4 357.2ZM317.202 439H289.802L253.402 380.6H240.002V439H216.602V357.4H238.802L216.602 322.4V299H263.202C263.202 299 310.002 299 310.002 339.8C310.002 364.6 292.802 374.4 279.202 378.2L317.202 439ZM244.402 322.4L266.202 357.2C272.402 356.6 286.602 353.6 286.602 339.8C286.602 322.4 263.202 322.4 263.202 322.4H244.402ZM385.063 320.4H369.463V417.6H385.863V439H329.662V417.6H346.063V320.4H330.463V299H385.063V320.4ZM560.384 298.8V439H536.984V353L496.784 439H474.784L431.984 351.2V439H408.584V298.8H432.384L485.584 407.8L536.584 298.8H560.384ZM685.388 322.4H615.388V357.4H673.588V380.6H615.388V415.6H685.388V439H591.988V299H685.388V322.4ZM138.6 641C114.4 640.4 95.2 626.4 94.8 600.2H118.2C118.6 611.8 128.2 617.6 138.6 617.6C149.4 617.6 159 610.6 159 599.6C159 587.8 148 580.6 138.6 580.2C137.4 580.2 127.8 580.2 117.6 575.6C103 568.8 94.8 556.4 94.8 539.8C94.8 513.2 116 497 138.6 497C162.8 497 181.4 513.4 181.8 537.2H158.6C158.2 525.6 149.2 520.4 138.6 520.4C127.6 520.4 118.2 526.8 118.2 539.8C118.2 551.4 128.2 557.6 138.6 557.6C139.6 557.6 149.4 557.6 159.4 562.2C174.2 569 182.2 583 182.2 599.6C182.2 626.4 161.2 641 138.6 641ZM301.794 522.4H231.794V557.4H289.994V580.6H231.794V615.6H301.794V639H208.394V499H301.794V522.4ZM426.772 639H399.372L362.972 580.6H349.572V639H326.172V557.4H348.372L326.172 522.4V499H372.772C372.772 499 419.572 499 419.572 539.8C419.572 564.6 402.372 574.4 388.772 578.2L426.772 639ZM353.972 522.4L375.772 557.2C381.972 556.6 396.172 553.6 396.172 539.8C396.172 522.4 372.772 522.4 372.772 522.4H353.972ZM432.633 499H544.433L488.633 644.8L432.633 499ZM467.033 522.2L488.633 581.8L510.033 522.2H467.033ZM605.766 520.4H590.166V617.6H606.566V639H550.366V617.6H566.766V520.4H551.166V499H605.766V520.4ZM694.888 617.6C707.688 617.6 719.488 612.4 727.888 604L744.288 620.6C731.688 633.2 714.288 641 694.888 641C656.288 641 624.688 613 624.688 569C624.688 526.8 653.888 497 694.888 497C714.288 497 731.688 504.8 744.288 517.6L727.888 534C719.488 525.6 707.688 520.4 694.888 520.4C666.088 520.4 648.488 540.8 648.488 569C648.488 599 669.088 617.6 694.888 617.6ZM861.755 522.4H791.755V557.4H849.955V580.6H791.755V615.6H861.755V639H768.355V499H861.755V522.4ZM924.733 641C900.533 640.4 881.333 626.4 880.933 600.2H904.333C904.733 611.8 914.333 617.6 924.733 617.6C935.533 617.6 945.133 610.6 945.133 599.6C945.133 587.8 934.133 580.6 924.733 580.2C923.533 580.2 913.933 580.2 903.733 575.6C889.133 568.8 880.933 556.4 880.933 539.8C880.933 513.2 902.133 497 924.733 497C948.933 497 967.533 513.4 967.933 537.2H944.733C944.333 525.6 935.333 520.4 924.733 520.4C913.733 520.4 904.333 526.8 904.333 539.8C904.333 551.4 914.333 557.6 924.733 557.6C925.733 557.6 935.533 557.6 945.533 562.2C960.333 569 968.333 583 968.333 599.6C968.333 626.4 947.333 641 924.733 641Z" fill="white"/>
<path d="M134.64 731.944C146.608 731.944 152.816 738.472 153.712 747.176L153.776 747.816H144.944L144.816 747.176C143.728 741.736 140.4 738.536 134.512 738.536C127.408 738.536 122.608 744.616 122.608 754.664C122.608 765.672 127.664 771.304 134.384 771.304C140.144 771.304 143.472 767.848 144.624 762.344L144.752 761.704H153.52L153.456 762.344C152.496 771.752 145.328 777.896 134 777.896C121.712 777.896 113.264 769.256 113.264 755.176C113.264 740.712 122.416 731.944 134.64 731.944ZM181.026 731.944C194.594 731.944 202.85 741.032 202.85 754.92C202.85 768.744 194.594 777.896 181.026 777.896C167.394 777.896 159.202 768.744 159.202 754.92C159.202 741.032 167.394 731.944 181.026 731.944ZM181.026 771.304C188.833 771.304 193.569 765.224 193.569 754.92C193.569 744.552 188.833 738.536 181.026 738.536C173.154 738.536 168.418 744.552 168.418 754.92C168.418 765.224 173.154 771.304 181.026 771.304ZM249.355 777H237.259L219.083 743.464C219.339 748.264 219.403 753.32 219.403 757.032V777H210.571V732.84H222.283L240.843 767.016C240.587 762.28 240.523 756.904 240.523 753.128V732.84H249.291L249.355 777ZM293.756 739.752H278.78V777H269.948V739.752H254.972V732.84H293.756V739.752ZM318.757 763.688H303.909L299.493 777H290.085L306.021 732.84H317.093L332.709 777H323.109L318.757 763.688ZM311.397 740.392L306.149 756.712H316.517L311.397 740.392ZM356.015 731.944C367.983 731.944 374.191 738.472 375.087 747.176L375.151 747.816H366.319L366.191 747.176C365.103 741.736 361.775 738.536 355.887 738.536C348.783 738.536 343.983 744.616 343.983 754.664C343.983 765.672 349.039 771.304 355.759 771.304C361.519 771.304 364.847 767.848 365.999 762.344L366.127 761.704H374.895L374.831 762.344C373.871 771.752 366.703 777.896 355.375 777.896C343.087 777.896 334.639 769.256 334.639 755.176C334.639 740.712 343.791 731.944 356.015 731.944ZM417.194 739.752H402.218V777H393.385V739.752H378.41V732.84H417.194V739.752ZM453.89 731.944C465.858 731.944 472.066 738.472 472.962 747.176L473.026 747.816H464.194L464.066 747.176C462.978 741.736 459.65 738.536 453.762 738.536C446.658 738.536 441.858 744.616 441.858 754.664C441.858 765.672 446.914 771.304 453.634 771.304C459.394 771.304 462.722 767.848 463.874 762.344L464.002 761.704H472.77L472.706 762.344C471.746 771.752 464.578 777.896 453.25 777.896C440.962 777.896 432.514 769.256 432.514 755.176C432.514 740.712 441.666 731.944 453.89 731.944ZM512.756 770.024V777H480.884V732.84H512.116V739.752H489.716V751.4H510.516V758.376H489.716V770.024H512.756ZM559.105 777H547.009L528.833 743.464C529.089 748.264 529.153 753.32 529.153 757.032V777H520.321V732.84H532.033L550.593 767.016C550.337 762.28 550.273 756.904 550.273 753.128V732.84H559.041L559.105 777ZM603.506 739.752H588.53V777H579.698V739.752H564.722V732.84H603.506V739.752ZM640.693 770.024V777H608.821V732.84H640.053V739.752H617.653V751.4H638.453V758.376H617.653V770.024H640.693ZM680.259 765.864C680.835 771.24 681.667 774.504 683.459 777H673.795C672.707 773.992 672.067 771.304 671.619 767.144C671.043 762.408 669.251 759.528 665.667 759.272C664.451 759.208 663.363 759.208 662.211 759.208H657.091V777H648.259V732.84H664.387C666.947 732.84 668.611 732.904 670.787 733.16C677.187 733.928 682.371 737.256 682.371 744.872C682.371 750.568 678.979 754.152 673.731 755.624C678.083 757.288 679.747 760.936 680.259 765.864ZM657.091 752.616H663.171C664.707 752.616 665.795 752.616 666.755 752.552C670.275 752.232 673.091 750.504 673.091 746.216C673.091 741.928 670.723 740.392 667.267 739.944C666.243 739.816 665.155 739.752 663.555 739.752H657.091V752.616Z" fill="white"/>
</svg>
